<svg xmlns="http://www.w3.org/2000/svg" viewBox="0 0 100 100" width="100" height="100">
  <rect width="100" height="100" rx="20" fill="#6F4E37"/>
  <g transform="translate(10, 15) scale(0.9)">
    <!-- Book -->
    <path d="M 10 70 L 40 80 L 70 70 L 70 20 L 40 30 L 10 20 Z" fill="#EADBC8" stroke="#EADBC8" stroke-width="4" stroke-linejoin="round"/>
    <path d="M 40 80 L 40 30" fill="none" stroke="#6F4E37" stroke-width="4" stroke-linecap="round"/>
    <path d="M 15 35 L 35 42" fill="none" stroke="#6F4E37" stroke-width="2" stroke-linecap="round"/>
    <path d="M 15 45 L 35 52" fill="none" stroke="#6F4E37" stroke-width="2" stroke-linecap="round"/>
    <path d="M 45 42 L 65 35" fill="none" stroke="#6F4E37" stroke-width="2" stroke-linecap="round"/>
    <path d="M 45 52 L 65 45" fill="none" stroke="#6F4E37" stroke-width="2" stroke-linecap="round"/>
    
    <!-- Coffee Cup overlapping book -->
    <path d="M 45 35 C 45 35 40 70 60 70 C 80 70 75 35 75 35 Z" fill="#C4A484"/>
    <!-- Cup handle -->
    <path d="M 75 45 C 85 45 85 60 72 60" fill="none" stroke="#C4A484" stroke-width="4" stroke-linecap="round"/>
    <!-- Steam -->
    <path d="M 55 25 C 50 20 60 15 55 10" fill="none" stroke="#EADBC8" stroke-width="3" stroke-linecap="round"/>
    <path d="M 65 28 C 60 23 70 18 65 13" fill="none" stroke="#EADBC8" stroke-width="3" stroke-linecap="round"/>
  </g>
</svg>
