<svg width="600" height="120" viewBox="0 0 600 120" xmlns="http://www.w3.org/2000/svg">
  <defs>
    <style>
      @import url('https://fonts.googleapis.com/css2?family=Playfair+Display:wght@900&amp;family=Montserrat:wght@600&amp;display=swap');
      .text-main { font-family: 'Playfair Display', serif; font-size: 56px; font-weight: 900; fill: #5C4033; }
      .text-amp { font-family: 'Playfair Display', serif; font-size: 56px; font-weight: 900; fill: #B89578; }
      .text-sub { font-family: 'Montserrat', sans-serif; font-size: 15px; letter-spacing: 5px; fill: #8A6D5A; text-transform: uppercase; font-weight: 600; }
      
      .book-bg { fill: #EBE1D5; }
      .book-line { fill: none; stroke: #5C4033; stroke-width: 6; stroke-linecap: round; stroke-linejoin: round; }
      .cup-fill { fill: #5C4033; }
      .steam-line { fill: none; stroke: #B89578; stroke-width: 4; stroke-linecap: round; }
    </style>
  </defs>

  <g transform="translate(10, 15)">
    <!-- Book Left Page -->
    <path class="book-bg" d="M 10 15 L 45 30 L 45 90 L 10 75 Z" />
    <path class="book-line" d="M 10 15 L 45 30 L 45 90 L 10 75 Z" />
    
    <!-- Book Right Page -->
    <path class="book-bg" d="M 45 30 L 80 15 L 80 75 L 45 90 Z" />
    <path class="book-line" d="M 45 30 L 80 15 L 80 75 L 45 90 Z" />
    
    <!-- Book Spine -->
    <line class="book-line" x1="45" y1="30" x2="45" y2="90" />
    <!-- Pages hint -->
    <line class="book-line" x1="18" y1="21" x2="18" y2="80" stroke-width="2" opacity="0.5" />
    <line class="book-line" x1="26" y1="24" x2="26" y2="83" stroke-width="2" opacity="0.5" />

    <!-- Coffee Cup -->
    <path class="cup-fill" d="M 45 40 L 85 40 Q 85 85 65 85 Q 45 85 45 40 Z" />
    <!-- Cup Handle -->
    <path class="book-line" d="M 85 50 Q 100 50 100 60 Q 100 70 80 70" />
    <!-- Cup Inner Lip -->
    <ellipse cx="65" cy="40" rx="20" ry="3" fill="#3E2B22" />

    <!-- Steam -->
    <path class="steam-line" d="M 55 30 Q 50 20 60 10 Q 70 0 65 -10" />
    <path class="steam-line" d="M 75 30 Q 70 20 80 10 Q 90 0 85 -10" />
  </g>

  <!-- Text -->
  <g transform="translate(140, 75)">
    <text x="0" y="0" class="text-main">Folio</text>
    <text x="145" y="0" class="text-amp">&amp;</text>
    <text x="195" y="0" class="text-main">Froth</text>
    
    <text x="5" y="32" class="text-sub">Books &amp; Coffee</text>
  </g>
</svg>
