<svg xmlns="http://www.w3.org/2000/svg" viewBox="0 0 800 600" width="800" height="600">
  <defs>
    <linearGradient id="bg1" x1="0%" y1="0%" x2="100%" y2="100%">
      <stop offset="0%" style="stop-color:#FAF7F2"/>
      <stop offset="100%" style="stop-color:#EADBC8"/>
    </linearGradient>
  </defs>
  <rect width="800" height="600" fill="url(#bg1)"/>
  <!-- Bookshelves -->
  <rect x="0" y="395" width="800" height="18" fill="#8B5E3C"/>
  <rect x="0" y="278" width="800" height="14" fill="#8B5E3C"/>
  <!-- Books row 1 -->
  <rect x="30" y="298" width="25" height="80" fill="#8B0000" rx="2"/>
  <rect x="60" y="308" width="20" height="70" fill="#1a3a6b" rx="2"/>
  <rect x="85" y="293" width="30" height="85" fill="#2d6b2d" rx="2"/>
  <rect x="120" y="303" width="22" height="75" fill="#8B6343" rx="2"/>
  <rect x="148" y="296" width="28" height="82" fill="#6b2d6b" rx="2"/>
  <rect x="182" y="306" width="18" height="72" fill="#C4A484" rx="2"/>
  <rect x="550" y="298" width="25" height="80" fill="#6b2d6b" rx="2"/>
  <rect x="580" y="308" width="20" height="70" fill="#8B0000" rx="2"/>
  <rect x="605" y="293" width="30" height="85" fill="#C4A484" rx="2"/>
  <rect x="640" y="303" width="22" height="75" fill="#2d6b2d" rx="2"/>
  <rect x="668" y="296" width="28" height="82" fill="#1a3a6b" rx="2"/>
  <rect x="702" y="306" width="18" height="72" fill="#8B6343" rx="2"/>
  <!-- Armchair -->
  <rect x="280" y="348" width="240" height="50" rx="12" fill="#8B5E3C"/>
  <rect x="258" y="318" width="42" height="82" rx="10" fill="#8B5E3C"/>
  <rect x="498" y="318" width="42" height="82" rx="10" fill="#8B5E3C"/>
  <rect x="280" y="308" width="240" height="48" rx="10" fill="#A06B45"/>
  <rect x="280" y="396" width="240" height="20" rx="5" fill="#6F4E37"/>
  <!-- Dog golden retriever body -->
  <ellipse cx="400" cy="362" rx="72" ry="52" fill="#D4956A"/>
  <!-- Head -->
  <circle cx="400" cy="282" r="54" fill="#D4956A"/>
  <!-- Floppy ears -->
  <ellipse cx="352" cy="296" rx="24" ry="40" fill="#C4855A" transform="rotate(-18 352 296)"/>
  <ellipse cx="448" cy="296" rx="24" ry="40" fill="#C4855A" transform="rotate(18 448 296)"/>
  <!-- Eyes -->
  <circle cx="382" cy="275" r="11" fill="#2B1810"/>
  <circle cx="418" cy="275" r="11" fill="#2B1810"/>
  <circle cx="385" cy="272" r="4.5" fill="white"/>
  <circle cx="421" cy="272" r="4.5" fill="white"/>
  <circle cx="386" cy="273" r="2" fill="#000"/>
  <circle cx="422" cy="273" r="2" fill="#000"/>
  <!-- Nose -->
  <ellipse cx="400" cy="295" rx="13" ry="9" fill="#2B1810"/>
  <ellipse cx="397" cy="293" rx="5" ry="3.5" fill="#5B3520" opacity="0.4"/>
  <!-- Mouth -->
  <path d="M388 307 Q400 318 412 307" fill="none" stroke="#9B5A2A" stroke-width="2.5" stroke-linecap="round"/>
  <path d="M400 307 L400 318" stroke="#9B5A2A" stroke-width="2" stroke-linecap="round"/>
  <!-- Blush -->
  <ellipse cx="366" cy="295" rx="14" ry="8" fill="#E8916A" opacity="0.3"/>
  <ellipse cx="434" cy="295" rx="14" ry="8" fill="#E8916A" opacity="0.3"/>
  <!-- Reading glasses -->
  <circle cx="381" cy="275" r="14" fill="none" stroke="#6F4E37" stroke-width="3"/>
  <circle cx="419" cy="275" r="14" fill="none" stroke="#6F4E37" stroke-width="3"/>
  <line x1="395" y1="275" x2="405" y2="275" stroke="#6F4E37" stroke-width="3"/>
  <line x1="338" y1="271" x2="367" y2="274" stroke="#6F4E37" stroke-width="2.5"/>
  <line x1="433" y1="274" x2="462" y2="271" stroke="#6F4E37" stroke-width="2.5"/>
  <!-- Paws -->
  <ellipse cx="342" cy="372" rx="32" ry="24" fill="#D4956A"/>
  <ellipse cx="458" cy="372" rx="32" ry="24" fill="#D4956A"/>
  <circle cx="328" cy="363" r="8" fill="#C4855A"/>
  <circle cx="338" cy="357" r="8" fill="#C4855A"/>
  <circle cx="350" cy="357" r="8" fill="#C4855A"/>
  <circle cx="450" cy="357" r="8" fill="#C4855A"/>
  <circle cx="462" cy="357" r="8" fill="#C4855A"/>
  <circle cx="472" cy="363" r="8" fill="#C4855A"/>
  <!-- Open book -->
  <rect x="336" y="342" width="128" height="96" rx="10" fill="#FAF7F2"/>
  <rect x="397" y="342" width="6" height="96" fill="#C4A484"/>
  <line x1="350" y1="360" x2="390" y2="360" stroke="#C4A484" stroke-width="1.5" opacity="0.6"/>
  <line x1="350" y1="370" x2="390" y2="370" stroke="#C4A484" stroke-width="1.5" opacity="0.6"/>
  <line x1="350" y1="380" x2="388" y2="380" stroke="#C4A484" stroke-width="1.5" opacity="0.6"/>
  <line x1="350" y1="390" x2="390" y2="390" stroke="#C4A484" stroke-width="1.5" opacity="0.6"/>
  <line x1="350" y1="400" x2="384" y2="400" stroke="#C4A484" stroke-width="1.5" opacity="0.6"/>
  <line x1="410" y1="360" x2="450" y2="360" stroke="#C4A484" stroke-width="1.5" opacity="0.6"/>
  <line x1="410" y1="370" x2="450" y2="370" stroke="#C4A484" stroke-width="1.5" opacity="0.6"/>
  <line x1="410" y1="380" x2="446" y2="380" stroke="#C4A484" stroke-width="1.5" opacity="0.6"/>
  <line x1="410" y1="390" x2="450" y2="390" stroke="#C4A484" stroke-width="1.5" opacity="0.6"/>
  <line x1="410" y1="400" x2="440" y2="400" stroke="#C4A484" stroke-width="1.5" opacity="0.6"/>
  <!-- Coffee mug -->
  <rect x="495" y="325" width="36" height="44" rx="6" fill="#C4A484"/>
  <path d="M531 335 Q546 335 546 352 Q546 366 531 366" fill="none" stroke="#8B6343" stroke-width="4.5" stroke-linecap="round"/>
  <ellipse cx="513" cy="325" rx="18" ry="5" fill="#8B6343"/>
  <path d="M503 318 Q500 310 504 304 Q508 298 506 292" fill="none" stroke="#C4A484" stroke-width="2" stroke-linecap="round" opacity="0.6"/>
  <path d="M513 316 Q510 308 514 302 Q518 296 516 290" fill="none" stroke="#C4A484" stroke-width="2" stroke-linecap="round" opacity="0.6"/>
  <!-- Tail -->
  <path d="M462 400 Q500 385 520 415 Q540 445 520 465" fill="none" stroke="#D4956A" stroke-width="20" stroke-linecap="round"/>
  <!-- Lamp -->
  <rect x="88" y="140" width="22" height="65" fill="#8B6343"/>
  <polygon points="58,140 142,140 122,98 78,98" fill="#C4A484" opacity="0.9"/>
  <ellipse cx="99" cy="170" rx="75" ry="75" fill="#FFEDCC" opacity="0.12"/>
  <!-- Decorative bookmark -->
  <rect x="356" y="342" width="9" height="22" rx="2" fill="#8B0000" opacity="0.8"/>
  <polygon points="356,364 360.5,372 365,364" fill="#8B0000" opacity="0.8"/>
  <!-- Ground shadow -->
  <ellipse cx="400" cy="560" rx="160" ry="22" fill="#8B5E3C" opacity="0.12"/>
</svg>
